{
	"asset":{
		"generator":"Khronos glTF Blender I/O v4.3.47",
		"version":"2.0"
	},
	"scene":0,
	"scenes":[
		{
			"name":"Scene",
			"nodes":[
				0,
				1,
				2,
				3
			]
		}
	],
	"nodes":[
		{
			"mesh":0,
			"name":"WoodenBox1x1",
			"translation":[
				0,
				0,
				-2.33953857421875
			]
		},
		{
			"mesh":1,
			"name":"WoodenBox1x2",
			"translation":[
				0,
				0,
				-4.319160461425781
			]
		},
		{
			"mesh":2,
			"name":"WoodenBox0.5x2",
			"translation":[
				0,
				0,
				-6.771764755249023
			]
		},
		{
			"mesh":3,
			"name":"Shelving",
			"rotation":[
				0,
				0.7071067094802856,
				0,
				0.7071068286895752
			]
		}
	],
	"materials":[
		{
			"doubleSided":true,
			"name":"Material",
			"pbrMetallicRoughness":{
				"baseColorFactor":[
					0.800000011920929,
					0.800000011920929,
					0.800000011920929,
					1
				],
				"metallicFactor":0,
				"roughnessFactor":0.5
			}
		},
		{
			"doubleSided":true,
			"name":"Material.001",
			"pbrMetallicRoughness":{
				"baseColorFactor":[
					0.800000011920929,
					0.800000011920929,
					0.800000011920929,
					1
				],
				"metallicFactor":0,
				"roughnessFactor":0.5
			}
		},
		{
			"doubleSided":true,
			"name":"Material.002",
			"pbrMetallicRoughness":{
				"baseColorFactor":[
					0.800000011920929,
					0.800000011920929,
					0.800000011920929,
					1
				],
				"metallicFactor":0,
				"roughnessFactor":0.5
			}
		}
	],
	"meshes":[
		{
			"name":"WoodenBox1x1",
			"primitives":[
				{
					"attributes":{
						"POSITION":0,
						"NORMAL":1,
						"TEXCOORD_0":2
					},
					"indices":3,
					"material":0
				}
			]
		},
		{
			"name":"WoodenBox1x2",
			"primitives":[
				{
					"attributes":{
						"POSITION":4,
						"NORMAL":5,
						"TEXCOORD_0":6
					},
					"indices":3,
					"material":1
				}
			]
		},
		{
			"name":"WoodenBox0.5x2",
			"primitives":[
				{
					"attributes":{
						"POSITION":7,
						"NORMAL":8,
						"TEXCOORD_0":9
					},
					"indices":3,
					"material":2
				}
			]
		},
		{
			"name":"Shelving",
			"primitives":[
				{
					"attributes":{
						"POSITION":10,
						"NORMAL":11,
						"TEXCOORD_0":12
					},
					"indices":13
				}
			]
		}
	],
	"accessors":[
		{
			"bufferView":0,
			"componentType":5126,
			"count":196,
			"max":[
				0.5,
				0.5,
				0.5
			],
			"min":[
				-0.5,
				-0.5,
				-0.5077046155929565
			],
			"type":"VEC3"
		},
		{
			"bufferView":1,
			"componentType":5126,
			"count":196,
			"type":"VEC3"
		},
		{
			"bufferView":2,
			"componentType":5126,
			"count":196,
			"type":"VEC2"
		},
		{
			"bufferView":3,
			"componentType":5123,
			"count":342,
			"type":"SCALAR"
		},
		{
			"bufferView":4,
			"componentType":5126,
			"count":196,
			"max":[
				0.5,
				0.5,
				0.9923542737960815
			],
			"min":[
				-0.5,
				-0.5,
				-1.0076457262039185
			],
			"type":"VEC3"
		},
		{
			"bufferView":5,
			"componentType":5126,
			"count":196,
			"type":"VEC3"
		},
		{
			"bufferView":6,
			"componentType":5126,
			"count":196,
			"type":"VEC2"
		},
		{
			"bufferView":7,
			"componentType":5126,
			"count":196,
			"max":[
				0.5,
				0.25,
				0.9923542737960815
			],
			"min":[
				-0.5,
				-0.25,
				-1.0076457262039185
			],
			"type":"VEC3"
		},
		{
			"bufferView":8,
			"componentType":5126,
			"count":196,
			"type":"VEC3"
		},
		{
			"bufferView":9,
			"componentType":5126,
			"count":196,
			"type":"VEC2"
		},
		{
			"bufferView":10,
			"componentType":5126,
			"count":2064,
			"max":[
				0.501001238822937,
				1,
				0.250999391078949
			],
			"min":[
				-0.5009987950325012,
				-1,
				-0.25100067257881165
			],
			"type":"VEC3"
		},
		{
			"bufferView":11,
			"componentType":5126,
			"count":2064,
			"type":"VEC3"
		},
		{
			"bufferView":12,
			"componentType":5126,
			"count":2064,
			"type":"VEC2"
		},
		{
			"bufferView":13,
			"componentType":5123,
			"count":5940,
			"type":"SCALAR"
		}
	],
	"bufferViews":[
		{
			"buffer":0,
			"byteLength":2352,
			"byteOffset":0,
			"target":34962
		},
		{
			"buffer":0,
			"byteLength":2352,
			"byteOffset":2352,
			"target":34962
		},
		{
			"buffer":0,
			"byteLength":1568,
			"byteOffset":4704,
			"target":34962
		},
		{
			"buffer":0,
			"byteLength":684,
			"byteOffset":6272,
			"target":34963
		},
		{
			"buffer":0,
			"byteLength":2352,
			"byteOffset":6956,
			"target":34962
		},
		{
			"buffer":0,
			"byteLength":2352,
			"byteOffset":9308,
			"target":34962
		},
		{
			"buffer":0,
			"byteLength":1568,
			"byteOffset":11660,
			"target":34962
		},
		{
			"buffer":0,
			"byteLength":2352,
			"byteOffset":13228,
			"target":34962
		},
		{
			"buffer":0,
			"byteLength":2352,
			"byteOffset":15580,
			"target":34962
		},
		{
			"buffer":0,
			"byteLength":1568,
			"byteOffset":17932,
			"target":34962
		},
		{
			"buffer":0,
			"byteLength":24768,
			"byteOffset":19500,
			"target":34962
		},
		{
			"buffer":0,
			"byteLength":24768,
			"byteOffset":44268,
			"target":34962
		},
		{
			"buffer":0,
			"byteLength":16512,
			"byteOffset":69036,
			"target":34962
		},
		{
			"buffer":0,
			"byteLength":11880,
			"byteOffset":85548,
			"target":34963
		}
	],
	"buffers":[
		{
			"byteLength":97428,
			"uri":"DomovoyModels.bin"
		}
	]
}
