{
	"asset":{
		"generator":"Khronos glTF Blender I/O v4.3.47",
		"version":"2.0"
	},
	"extensionsUsed":[
		"KHR_materials_unlit"
	],
	"scene":0,
	"scenes":[
		{
			"name":"Scene",
			"nodes":[
				0,
				1,
				2,
				3,
				4,
				5,
				6,
				7,
				8,
				9
			]
		}
	],
	"nodes":[
		{
			"mesh":0,
			"name":"WoodenBox",
			"translation":[
				2.25,
				0,
				0
			]
		},
		{
			"mesh":1,
			"name":"BowlingBall",
			"translation":[
				0.9738192558288574,
				0,
				0
			]
		},
		{
			"mesh":2,
			"name":"BowlingPin",
			"translation":[
				0.6875,
				0,
				0
			]
		},
		{
			"mesh":3,
			"name":"Medkit",
			"translation":[
				1.375,
				0,
				0
			]
		},
		{
			"mesh":4,
			"name":"Poster1",
			"rotation":[
				0.7071068286895752,
				0,
				0,
				0.7071068286895752
			],
			"translation":[
				0,
				1.4375,
				0
			]
		},
		{
			"mesh":5,
			"name":"Poster2",
			"rotation":[
				0.7071068286895752,
				0,
				0,
				0.7071068286895752
			],
			"translation":[
				1.649158000946045,
				1.4375,
				0
			]
		},
		{
			"mesh":6,
			"name":"Poster3",
			"rotation":[
				0.7071068286895752,
				0,
				0,
				0.7071068286895752
			],
			"translation":[
				2.899158000946045,
				1.4375,
				0
			]
		},
		{
			"mesh":7,
			"name":"Poster4",
			"rotation":[
				0.7071068286895752,
				0,
				0,
				0.7071068286895752
			],
			"translation":[
				4.149158000946045,
				1.4375,
				0
			]
		},
		{
			"mesh":8,
			"name":"Poster5",
			"rotation":[
				0.7071068286895752,
				0,
				0,
				0.7071068286895752
			],
			"translation":[
				5.461658000946045,
				1.4375,
				0
			]
		},
		{
			"mesh":9,
			"name":"Carpter",
			"rotation":[
				0.7071068286895752,
				0,
				0,
				0.7071068286895752
			],
			"translation":[
				0,
				3.375,
				0
			]
		}
	],
	"materials":[
		{
			"doubleSided":true,
			"extensions":{
				"KHR_materials_unlit":{}
			},
			"name":"m_woodenBox",
			"pbrMetallicRoughness":{
				"baseColorTexture":{
					"index":0
				},
				"metallicFactor":0,
				"roughnessFactor":0.9
			}
		},
		{
			"doubleSided":true,
			"extensions":{
				"KHR_materials_unlit":{}
			},
			"name":"m_bowlingBall",
			"pbrMetallicRoughness":{
				"baseColorTexture":{
					"index":1
				},
				"metallicFactor":0,
				"roughnessFactor":0.9
			}
		},
		{
			"doubleSided":true,
			"extensions":{
				"KHR_materials_unlit":{}
			},
			"name":"m_bowlingPin",
			"pbrMetallicRoughness":{
				"baseColorTexture":{
					"index":2
				},
				"metallicFactor":0,
				"roughnessFactor":0.9
			}
		},
		{
			"doubleSided":true,
			"extensions":{
				"KHR_materials_unlit":{}
			},
			"name":"m_medkit",
			"pbrMetallicRoughness":{
				"baseColorTexture":{
					"index":3
				},
				"metallicFactor":0,
				"roughnessFactor":0.9
			}
		},
		{
			"doubleSided":true,
			"extensions":{
				"KHR_materials_unlit":{}
			},
			"name":"m_poster1",
			"pbrMetallicRoughness":{
				"baseColorTexture":{
					"index":4
				},
				"metallicFactor":0,
				"roughnessFactor":0.9
			}
		},
		{
			"doubleSided":true,
			"extensions":{
				"KHR_materials_unlit":{}
			},
			"name":"m_poster2",
			"pbrMetallicRoughness":{
				"baseColorTexture":{
					"index":5
				},
				"metallicFactor":0,
				"roughnessFactor":0.9
			}
		},
		{
			"doubleSided":true,
			"extensions":{
				"KHR_materials_unlit":{}
			},
			"name":"m_poster3",
			"pbrMetallicRoughness":{
				"baseColorTexture":{
					"index":6
				},
				"metallicFactor":0,
				"roughnessFactor":0.9
			}
		},
		{
			"doubleSided":true,
			"extensions":{
				"KHR_materials_unlit":{}
			},
			"name":"m_poster4",
			"pbrMetallicRoughness":{
				"baseColorTexture":{
					"index":7
				},
				"metallicFactor":0,
				"roughnessFactor":0.9
			}
		},
		{
			"doubleSided":true,
			"extensions":{
				"KHR_materials_unlit":{}
			},
			"name":"m_poster5",
			"pbrMetallicRoughness":{
				"baseColorTexture":{
					"index":8
				},
				"metallicFactor":0,
				"roughnessFactor":0.9
			}
		},
		{
			"doubleSided":true,
			"extensions":{
				"KHR_materials_unlit":{}
			},
			"name":"m_carpet",
			"pbrMetallicRoughness":{
				"baseColorTexture":{
					"index":9
				},
				"metallicFactor":0,
				"roughnessFactor":0.9
			}
		}
	],
	"meshes":[
		{
			"name":"WoodenBox",
			"primitives":[
				{
					"attributes":{
						"POSITION":0,
						"NORMAL":1,
						"TEXCOORD_0":2
					},
					"indices":3,
					"material":0
				}
			]
		},
		{
			"name":"BowlingBall",
			"primitives":[
				{
					"attributes":{
						"POSITION":4,
						"NORMAL":5,
						"TEXCOORD_0":6
					},
					"indices":7,
					"material":1
				}
			]
		},
		{
			"name":"BowlingPin",
			"primitives":[
				{
					"attributes":{
						"POSITION":8,
						"NORMAL":9,
						"TEXCOORD_0":10
					},
					"indices":11,
					"material":2
				}
			]
		},
		{
			"name":"Medkit",
			"primitives":[
				{
					"attributes":{
						"POSITION":12,
						"NORMAL":13,
						"TEXCOORD_0":14
					},
					"indices":15,
					"material":3
				}
			]
		},
		{
			"name":"Poster1",
			"primitives":[
				{
					"attributes":{
						"POSITION":16,
						"NORMAL":17,
						"TEXCOORD_0":18
					},
					"indices":19,
					"material":4
				}
			]
		},
		{
			"name":"Poster2",
			"primitives":[
				{
					"attributes":{
						"POSITION":20,
						"NORMAL":21,
						"TEXCOORD_0":22
					},
					"indices":19,
					"material":5
				}
			]
		},
		{
			"name":"Poster3",
			"primitives":[
				{
					"attributes":{
						"POSITION":23,
						"NORMAL":24,
						"TEXCOORD_0":25
					},
					"indices":19,
					"material":6
				}
			]
		},
		{
			"name":"Poster4",
			"primitives":[
				{
					"attributes":{
						"POSITION":26,
						"NORMAL":27,
						"TEXCOORD_0":28
					},
					"indices":19,
					"material":7
				}
			]
		},
		{
			"name":"Poster5",
			"primitives":[
				{
					"attributes":{
						"POSITION":29,
						"NORMAL":30,
						"TEXCOORD_0":31
					},
					"indices":19,
					"material":8
				}
			]
		},
		{
			"name":"Carpter",
			"primitives":[
				{
					"attributes":{
						"POSITION":32,
						"NORMAL":33,
						"TEXCOORD_0":34
					},
					"indices":19,
					"material":9
				}
			]
		}
	],
	"textures":[
		{
			"sampler":0,
			"source":0
		},
		{
			"sampler":0,
			"source":1
		},
		{
			"sampler":0,
			"source":2
		},
		{
			"sampler":0,
			"source":3
		},
		{
			"sampler":0,
			"source":4
		},
		{
			"sampler":0,
			"source":5
		},
		{
			"sampler":0,
			"source":6
		},
		{
			"sampler":0,
			"source":7
		},
		{
			"sampler":0,
			"source":8
		},
		{
			"sampler":0,
			"source":9
		}
	],
	"images":[
		{
			"mimeType":"image/png",
			"name":"t_box",
			"uri":"../Textures/t_box.png"
		},
		{
			"mimeType":"image/png",
			"name":"t_bowlingBall",
			"uri":"../Textures/t_bowlingBall.png"
		},
		{
			"mimeType":"image/png",
			"name":"t_bowlingPin",
			"uri":"../Textures/t_bowlingPin.png"
		},
		{
			"mimeType":"image/png",
			"name":"t_medkit",
			"uri":"../Textures/t_medkit.png"
		},
		{
			"mimeType":"image/png",
			"name":"t_poster1",
			"uri":"../Textures/t_poster1.png"
		},
		{
			"mimeType":"image/png",
			"name":"t_poster2",
			"uri":"../Textures/t_poster2.png"
		},
		{
			"mimeType":"image/png",
			"name":"t_poster3",
			"uri":"../Textures/t_poster3.png"
		},
		{
			"mimeType":"image/png",
			"name":"t_poster4",
			"uri":"../Textures/t_poster4.png"
		},
		{
			"mimeType":"image/png",
			"name":"t_poster5",
			"uri":"../Textures/t_poster5.png"
		},
		{
			"mimeType":"image/png",
			"name":"Carpet",
			"uri":"../Textures/Carpet.png"
		}
	],
	"accessors":[
		{
			"bufferView":0,
			"componentType":5126,
			"count":24,
			"max":[
				0.5,
				0.5,
				0.5
			],
			"min":[
				-0.5,
				-0.5,
				-0.5
			],
			"type":"VEC3"
		},
		{
			"bufferView":1,
			"componentType":5126,
			"count":24,
			"type":"VEC3"
		},
		{
			"bufferView":2,
			"componentType":5126,
			"count":24,
			"type":"VEC2"
		},
		{
			"bufferView":3,
			"componentType":5123,
			"count":36,
			"type":"SCALAR"
		},
		{
			"bufferView":4,
			"componentType":5126,
			"count":240,
			"max":[
				0.10790000110864639,
				0.10790000110864639,
				0.1078999936580658
			],
			"min":[
				-0.10790000110864639,
				-0.10790000110864639,
				-0.1078999936580658
			],
			"type":"VEC3"
		},
		{
			"bufferView":5,
			"componentType":5126,
			"count":240,
			"type":"VEC3"
		},
		{
			"bufferView":6,
			"componentType":5126,
			"count":240,
			"type":"VEC2"
		},
		{
			"bufferView":7,
			"componentType":5123,
			"count":240,
			"type":"SCALAR"
		},
		{
			"bufferView":8,
			"componentType":5126,
			"count":292,
			"max":[
				0.06255140155553818,
				0.1563185751438141,
				0.06249118968844414
			],
			"min":[
				-0.06244860216975212,
				-0.21870765089988708,
				-0.06250881403684616
			],
			"type":"VEC3"
		},
		{
			"bufferView":9,
			"componentType":5126,
			"count":292,
			"type":"VEC3"
		},
		{
			"bufferView":10,
			"componentType":5126,
			"count":292,
			"type":"VEC2"
		},
		{
			"bufferView":11,
			"componentType":5123,
			"count":1236,
			"type":"SCALAR"
		},
		{
			"bufferView":12,
			"componentType":5126,
			"count":216,
			"max":[
				0.18312287330627441,
				0.0625,
				0.125
			],
			"min":[
				-0.19187712669372559,
				-0.0625,
				-0.125
			],
			"type":"VEC3"
		},
		{
			"bufferView":13,
			"componentType":5126,
			"count":216,
			"type":"VEC3"
		},
		{
			"bufferView":14,
			"componentType":5126,
			"count":216,
			"type":"VEC2"
		},
		{
			"bufferView":15,
			"componentType":5123,
			"count":324,
			"type":"SCALAR"
		},
		{
			"bufferView":16,
			"componentType":5126,
			"count":4,
			"max":[
				1,
				0,
				0.5
			],
			"min":[
				-1,
				0,
				-0.5
			],
			"type":"VEC3"
		},
		{
			"bufferView":17,
			"componentType":5126,
			"count":4,
			"type":"VEC3"
		},
		{
			"bufferView":18,
			"componentType":5126,
			"count":4,
			"type":"VEC2"
		},
		{
			"bufferView":19,
			"componentType":5123,
			"count":6,
			"type":"SCALAR"
		},
		{
			"bufferView":20,
			"componentType":5126,
			"count":4,
			"max":[
				0.5,
				0,
				0.75
			],
			"min":[
				-0.5,
				0,
				-0.75
			],
			"type":"VEC3"
		},
		{
			"bufferView":21,
			"componentType":5126,
			"count":4,
			"type":"VEC3"
		},
		{
			"bufferView":22,
			"componentType":5126,
			"count":4,
			"type":"VEC2"
		},
		{
			"bufferView":23,
			"componentType":5126,
			"count":4,
			"max":[
				0.5,
				0,
				0.75
			],
			"min":[
				-0.5,
				0,
				-0.75
			],
			"type":"VEC3"
		},
		{
			"bufferView":24,
			"componentType":5126,
			"count":4,
			"type":"VEC3"
		},
		{
			"bufferView":25,
			"componentType":5126,
			"count":4,
			"type":"VEC2"
		},
		{
			"bufferView":26,
			"componentType":5126,
			"count":4,
			"max":[
				0.5,
				0,
				0.75
			],
			"min":[
				-0.5,
				0,
				-0.75
			],
			"type":"VEC3"
		},
		{
			"bufferView":27,
			"componentType":5126,
			"count":4,
			"type":"VEC3"
		},
		{
			"bufferView":28,
			"componentType":5126,
			"count":4,
			"type":"VEC2"
		},
		{
			"bufferView":29,
			"componentType":5126,
			"count":4,
			"max":[
				0.5,
				0,
				0.75
			],
			"min":[
				-0.5,
				0,
				-0.75
			],
			"type":"VEC3"
		},
		{
			"bufferView":30,
			"componentType":5126,
			"count":4,
			"type":"VEC3"
		},
		{
			"bufferView":31,
			"componentType":5126,
			"count":4,
			"type":"VEC2"
		},
		{
			"bufferView":32,
			"componentType":5126,
			"count":4,
			"max":[
				1.5,
				0,
				1
			],
			"min":[
				-1.5,
				0,
				-1
			],
			"type":"VEC3"
		},
		{
			"bufferView":33,
			"componentType":5126,
			"count":4,
			"type":"VEC3"
		},
		{
			"bufferView":34,
			"componentType":5126,
			"count":4,
			"type":"VEC2"
		}
	],
	"bufferViews":[
		{
			"buffer":0,
			"byteLength":288,
			"byteOffset":0,
			"target":34962
		},
		{
			"buffer":0,
			"byteLength":288,
			"byteOffset":288,
			"target":34962
		},
		{
			"buffer":0,
			"byteLength":192,
			"byteOffset":576,
			"target":34962
		},
		{
			"buffer":0,
			"byteLength":72,
			"byteOffset":768,
			"target":34963
		},
		{
			"buffer":0,
			"byteLength":2880,
			"byteOffset":840,
			"target":34962
		},
		{
			"buffer":0,
			"byteLength":2880,
			"byteOffset":3720,
			"target":34962
		},
		{
			"buffer":0,
			"byteLength":1920,
			"byteOffset":6600,
			"target":34962
		},
		{
			"buffer":0,
			"byteLength":480,
			"byteOffset":8520,
			"target":34963
		},
		{
			"buffer":0,
			"byteLength":3504,
			"byteOffset":9000,
			"target":34962
		},
		{
			"buffer":0,
			"byteLength":3504,
			"byteOffset":12504,
			"target":34962
		},
		{
			"buffer":0,
			"byteLength":2336,
			"byteOffset":16008,
			"target":34962
		},
		{
			"buffer":0,
			"byteLength":2472,
			"byteOffset":18344,
			"target":34963
		},
		{
			"buffer":0,
			"byteLength":2592,
			"byteOffset":20816,
			"target":34962
		},
		{
			"buffer":0,
			"byteLength":2592,
			"byteOffset":23408,
			"target":34962
		},
		{
			"buffer":0,
			"byteLength":1728,
			"byteOffset":26000,
			"target":34962
		},
		{
			"buffer":0,
			"byteLength":648,
			"byteOffset":27728,
			"target":34963
		},
		{
			"buffer":0,
			"byteLength":48,
			"byteOffset":28376,
			"target":34962
		},
		{
			"buffer":0,
			"byteLength":48,
			"byteOffset":28424,
			"target":34962
		},
		{
			"buffer":0,
			"byteLength":32,
			"byteOffset":28472,
			"target":34962
		},
		{
			"buffer":0,
			"byteLength":12,
			"byteOffset":28504,
			"target":34963
		},
		{
			"buffer":0,
			"byteLength":48,
			"byteOffset":28516,
			"target":34962
		},
		{
			"buffer":0,
			"byteLength":48,
			"byteOffset":28564,
			"target":34962
		},
		{
			"buffer":0,
			"byteLength":32,
			"byteOffset":28612,
			"target":34962
		},
		{
			"buffer":0,
			"byteLength":48,
			"byteOffset":28644,
			"target":34962
		},
		{
			"buffer":0,
			"byteLength":48,
			"byteOffset":28692,
			"target":34962
		},
		{
			"buffer":0,
			"byteLength":32,
			"byteOffset":28740,
			"target":34962
		},
		{
			"buffer":0,
			"byteLength":48,
			"byteOffset":28772,
			"target":34962
		},
		{
			"buffer":0,
			"byteLength":48,
			"byteOffset":28820,
			"target":34962
		},
		{
			"buffer":0,
			"byteLength":32,
			"byteOffset":28868,
			"target":34962
		},
		{
			"buffer":0,
			"byteLength":48,
			"byteOffset":28900,
			"target":34962
		},
		{
			"buffer":0,
			"byteLength":48,
			"byteOffset":28948,
			"target":34962
		},
		{
			"buffer":0,
			"byteLength":32,
			"byteOffset":28996,
			"target":34962
		},
		{
			"buffer":0,
			"byteLength":48,
			"byteOffset":29028,
			"target":34962
		},
		{
			"buffer":0,
			"byteLength":48,
			"byteOffset":29076,
			"target":34962
		},
		{
			"buffer":0,
			"byteLength":32,
			"byteOffset":29124,
			"target":34962
		}
	],
	"samplers":[
		{
			"magFilter":9728,
			"minFilter":9984
		}
	],
	"buffers":[
		{
			"byteLength":29156,
			"uri":"HiddenCollection.bin"
		}
	]
}
